<?xml version="1.0" encoding="iso-8859-1"?>
<!-- Generator: Adobe Illustrator 19.0.0, SVG Export Plug-In . SVG Version: 6.00 Build 0)  -->
<svg version="1.1" id="Layer_1" xmlns="http://www.w3.org/2000/svg" xmlns:xlink="http://www.w3.org/1999/xlink" x="0px" y="0px"
	 viewBox="0 0 512.1 512.1" style="enable-background:new 0 0 512.1 512.1;" xml:space="preserve">
<path style="fill:#9B0045;" d="M155.75,84.3l-22-39.3l-4.4,2.7c-12.1,7.4-23.6,15.8-34,25c-24.8,21.8-44.6,47.8-59,77.4
	c-14.8,30.5-22.9,63.3-24.1,97.3l-0.2,5.2h237.8L155.75,84.3z"/>
<path style="fill:#215EFF;" d="M226.75,301.1l23.3-41.6H12.15l0.2,5.2c0.3,7,0.8,14.2,1.7,21.5c0.2,1.4,0.3,2.7,0.5,4
	c0.4,3,0.8,6.1,1.4,9.1c0.1,0.5,0.2,1,0.3,1.3c0.3,1.7,0.6,3.3,1,4.9l0.1,0.7c0.3,1.5,0.6,3.1,1,4.7l0.3,1.1
	c0.4,1.8,0.9,3.7,1.4,5.6c1.7,6.6,3.3,12.1,5.1,17.1c0.6,1.8,1.2,3.6,1.9,5.4c0.8,2.1,1.7,4.6,2.7,7c2.9,7.2,6,14.1,9.4,20.5
	c1.3,2.5,2.4,4.7,3.5,6.6c1.2,2.1,2.4,4.1,3.7,6.4c1.4,2.3,2.6,4.3,3.8,6.1c1.4,2.1,2.8,4.4,4.3,6.5c0.7,1,1.4,2.1,2.2,3.1
	c0.4,0.7,0.9,1.4,1.4,2c0.8,1.1,1.6,2.2,2.4,3.3c2.7,3.8,5.8,7.5,8.1,10.3l0.1,0.1c1.3,1.5,2.6,3.1,3.9,4.6c3,3.4,5.7,6.3,8.3,9
	c1.9,2,4,4.2,6.7,6.7c0.3,0.3,0.6,0.6,0.9,0.9c2.5,2.4,4.8,4.5,7.1,6.5c6.7,5.9,13.9,11.4,21.2,16.5c1.7,1.2,3.4,2.4,5,3.4
	c2.9,1.9,5.3,3.5,7.6,4.9l4.4,2.7l18.4-32.8L226.75,301.1z"/>
<path style="fill:#083D31;" d="M231.85,205.4l24.2,43.4l92-164.2l24-43l-4.6-2.4c-11.2-5.7-22.6-10.6-33.8-14.3
	c-0.2-0.1-0.4-0.1-0.5-0.2h-0.1l-0.5-0.3l-0.5-0.1h-0.1c-0.2-0.1-0.4-0.2-0.7-0.2c-2.1-0.7-4.3-1.3-6.4-2l-1.5-0.4
	c-2.6-0.8-5.4-1.5-9-2.4l-0.6-0.2h-0.2c-2.6-0.6-5.3-1.3-8-1.9c-9.5-1.9-18.5-3.3-27.5-4c-1.6-0.2-3.2-0.4-4.9-0.4
	c-0.8,0-1.6-0.1-2.4-0.2c-1-0.1-1.9-0.1-2.9-0.2h-0.2c-0.3,0-0.7,0-1.1,0c-0.5,0-1.1,0-1.6,0c-2.9-0.1-5.8-0.2-8.9-0.2
	c-38.6,0-77.1,9.4-111.4,27.1l-4.6,2.4l22.2,39.7L231.85,205.4z"/>
<path style="fill:#24067F;" d="M262.15,252.5h237.8l-0.2-5.2c-0.3-7-0.8-14.2-1.7-21.5c-0.2-1.4-0.3-2.7-0.5-4
	c-0.4-3-0.8-6.1-1.4-9.1c-0.1-0.5-0.2-1-0.3-1.3c-0.3-1.6-0.6-3.1-0.9-4.6l-0.1-0.3c-1.5-7.2-3.1-13.8-5-20c-0.5-1.9-1.2-3.9-2-6.4
	c-0.3-1-0.6-1.8-0.9-2.7c-0.6-1.8-1.2-3.6-1.9-5.4c-1.6-4.4-3.2-8.6-5.1-12.7c-0.3-0.7-0.6-1.4-0.9-2.1c-0.8-1.7-1.6-3.5-2.4-5.3
	c-1.1-2.5-2.4-5-3.7-7.4c-1.3-2.5-2.4-4.6-3.5-6.6c-1.2-2.1-2.4-4.2-3.7-6.4c-1.4-2.3-2.6-4.3-3.8-6.2c-1.4-2.1-2.8-4.4-4.3-6.4
	c-1.1-1.6-2.2-3.3-3.5-4.9c-3.2-4.6-6.7-9.2-10.6-13.8c-1.3-1.5-2.6-3.1-3.9-4.6l-0.1-0.1l-0.1-0.1l-0.1-0.1
	c-0.2-0.2-0.4-0.5-0.8-0.8c-2.4-2.8-4.7-5.3-7-7.6l-0.4-0.4c-1.1-1.1-2.2-2.3-3.3-3.3c-1.7-1.8-3.7-3.7-6-5.8
	c-1.7-1.6-3.6-3.3-5.4-4.9l-0.1-0.1c-1.1-0.9-2.1-1.8-3.3-2.8c-2.7-2.2-5.5-4.5-8.3-6.8l-0.3-0.2l-0.3-0.2c-0.2-0.1-0.4-0.3-0.7-0.5
	c-0.1-0.1-0.3-0.2-0.4-0.3c-1.7-1.4-3.4-2.7-5.1-3.7c-0.8-0.7-1.7-1.3-2.7-1.9c-1.6-1.2-3.3-2.3-4.8-3.3c-2.9-1.9-5.3-3.5-7.6-4.9
	l-4.4-2.7l-24.1,43.2L262.15,252.5z"/>
<path style="fill:#A60916;" d="M262.15,259.5l95.6,170.7l20.6,36.9l4.4-2.7c5.1-3.2,10-6.4,14.5-9.7c1.8-1.3,3.6-2.6,5.4-4
	c2-1.5,4.1-3.1,6.4-5c3.7-3,6.7-5.5,9.4-7.9l0.1-0.1l0.1-0.1c0.2-0.2,0.3-0.3,0.5-0.5c0.3-0.2,0.5-0.5,0.8-0.7
	c2.2-2,4.4-4.1,6.6-6.1l0.2-0.2l0.2-0.2c0.4-0.5,0.8-0.9,1.3-1.3c2-2,4.2-4.2,6.2-6.4c8.5-9.1,16.3-18.9,23.4-29.4
	c1.3-1.9,2.6-3.8,3.9-5.9c2.7-4.3,5-8,6.8-11.3c0.8-1.3,1.5-2.7,2.3-4.2c4.3-7.7,8.1-15.9,11.5-24.3c2-4.8,3.7-9.5,5.2-14.2
	c1-2.9,1.7-5.2,2.3-7.2c1.9-6.4,3.4-12.2,4.5-17.6c0.5-2.4,1-4.8,1.5-7.3c0.4-1.8,0.6-3.5,0.9-5.1c0.4-1.9,0.6-3.8,0.9-5.6l0.1-0.6
	c0.2-1.5,0.5-3.1,0.6-4.6c0.8-6.6,1.3-13.4,1.6-20.3l0.2-5.2h-238V259.5z"/>
<path style="fill:#CC004E;" d="M200.85,249.5H52.65c3.4-54.5,28.7-103.2,67.2-137.1L200.85,249.5z"/>
<path style="fill:#F6981E;" d="M351.75,434.1l-73.6-131.3l-22.1-39.5l-97.5,174.3l-18.5,33l4.6,2.4c8.6,4.4,17.5,8.3,26.3,11.7
	c3.1,1.1,6.1,2.2,9.2,3.2c2.2,0.7,5.6,1.8,9,2.8c6.8,1.9,12.9,3.4,18.6,4.5c3,0.6,6.1,1.2,9.2,1.7c0.5,0.1,1,0.2,1.5,0.2
	c1.2,0.2,2.3,0.4,3.6,0.5c1.5,0.3,3,0.4,4.5,0.6c2.4,0.3,4.9,0.6,7.4,0.8c3.9,0.4,8.2,0.7,13.3,0.9c2.8,0.1,5.9,0.2,9,0.2
	c38.6,0,77.1-9.4,111.4-27.1l4.6-2.4L351.75,434.1z"/>
<path style="fill:#FDB50D;" d="M349.35,432.9c-28.4,15.4-60.9,24.2-95.6,24.2c-18.9,0-37.3-2.6-54.7-7.6l76.7-148L349.35,432.9z"/>
<path style="fill:#0F7BE4;" d="M226.05,298.7l-74.5,133.1c-47.5-28.8-82-76.7-92.8-133.1H226.05z"/>
<path style="fill:#0D6758;" d="M307.85,70.4l-73.5,134.7L164.85,81c25.9-12.2,54.7-19,85.2-19C270.15,62,289.65,65,307.85,70.4z"/>
<path style="fill:#2B339B;" d="M444.55,212.1h-157l68.8-122.8C399.85,116.7,432.15,160.5,444.55,212.1z"/>
<path style="fill:#C90006;" d="M449.85,261.9c-1.1,57.1-26.2,108.3-65.5,144l-83-144H449.85z"/>
<path d="M256.05,0c-141.1,0-256,114.9-256,256c0,14.5,1.2,28.8,3.7,42.7c15.6,93.4,82.2,169.8,170,199.7
	c25.9,8.9,53.6,13.7,82.3,13.7c59.8,0,114.9-20.6,158.5-55.2c59.4-47,97.5-119.6,97.5-200.9C512.05,114.9,397.15,0,256.05,0z
	 M387.55,56.7c1.6,1,3.2,2,4.8,3.2c0.9,0.5,1.7,1.1,2.5,1.8c1.7,1,3.3,2.2,4.9,3.6c0.6,0.4,1.1,0.9,1.7,1.2c2.8,2.2,5.5,4.4,8.2,6.7
	c1.2,1,2.3,2,3.4,2.9c1.8,1.5,3.6,3.2,5.2,4.7c2,1.9,4,3.8,5.9,5.7c1.1,1,2.2,2.1,3.2,3.2l0.5,0.5c2.4,2.5,4.8,5.1,7,7.7
	c0.3,0.3,0.6,0.6,0.9,0.9c1.3,1.5,2.6,3,3.8,4.5c3.7,4.4,7.2,8.9,10.4,13.6c1.3,1.5,2.4,3.2,3.4,4.8c1.5,2,2.8,4.2,4.2,6.3
	c1.4,2,2.6,3.9,3.7,6c1.3,2.1,2.5,4.2,3.7,6.3c1.3,2.1,2.4,4.3,3.4,6.5c1.3,2.3,2.5,4.7,3.6,7.2c1.2,2.4,2.2,4.9,3.3,7.3
	c1.8,4.1,3.4,8.2,4.9,12.5c0.7,1.8,1.4,3.5,1.9,5.3c0.3,0.9,0.6,1.6,0.9,2.5c0.7,2,1.4,4.2,2,6.3c2,6.4,3.6,13,4.9,19.6
	c0.3,1.7,0.7,3.4,1,5.2c0.1,0.3,0.2,0.5,0.2,0.8c0.6,3,1,6.1,1.5,9.1c0.2,1.3,0.3,2.6,0.5,3.9c0.9,6.9,1.5,14,1.7,21.1h-224.1
	l19.1-34.1l68.8-122.8l21.6-38.7C382.65,53.4,385.15,55,387.55,56.7z M256.05,17.1c3,0,5.9,0.1,8.8,0.2c0.9,0,1.9,0.1,2.7,0.1
	c1.8,0.1,3.6,0.3,5.3,0.3c1.6,0.1,3.2,0.3,4.7,0.4c9.2,0.8,18.2,2.1,27,3.9c2.8,0.6,5.6,1.3,8.4,2c0.1,0,0.1,0,0.2,0
	c3,0.8,5.9,1.5,8.9,2.4c2.6,0.8,5.2,1.5,7.8,2.4c0.3,0.1,0.7,0.3,1.1,0.3h0.1c0.3,0.2,0.6,0.3,1,0.4c11.4,3.8,22.5,8.6,33.2,14.1
	l-21.5,38.5l-87.7,156.4l-19.9-35.6l-69.5-124.1l-19.7-35.2C179.55,26.7,216.75,17.1,256.05,17.1z M98.65,76.4
	c10.3-9.1,21.5-17.3,33.3-24.5l19.5,34.8l90,160.8H17.35C19.75,179.4,50.75,118.4,98.65,76.4z M124.55,455.3c-1.6-1-3.2-2-4.8-3.2
	c-7.3-5-14.2-10.4-20.8-16.2c-2.6-2.2-4.9-4.4-7.3-6.7c-0.1,0-0.1,0-0.1-0.1c-2.4-2.2-4.8-4.5-7-6.9c-2.8-2.9-5.5-5.9-8.2-8.9
	c-1.3-1.5-2.6-3-3.8-4.5c-2.7-3.3-5.5-6.7-7.9-10.2c-0.9-1.1-1.7-2.3-2.6-3.5c-0.4-0.4-0.8-0.9-1-1.5c-0.9-1.1-1.6-2.1-2.3-3.2
	c-1.5-2-2.8-4.2-4.2-6.3c-1.4-2-2.6-3.9-3.7-6c-1.3-2.1-2.5-4.2-3.7-6.3c-1.3-2.1-2.4-4.3-3.4-6.5c-3.4-6.6-6.5-13.2-9.2-20.1
	c-0.9-2.2-1.8-4.5-2.6-6.9c-0.7-1.8-1.4-3.5-1.9-5.3c-2-5.5-3.6-11.1-5-16.7c-0.6-2.1-1.1-4.3-1.6-6.5c-0.4-1.7-0.8-3.5-1.1-5.2
	c-0.3-1.7-0.7-3.4-1-5.2c-0.1-0.3-0.2-0.5-0.2-0.8c-0.6-3-1-6.1-1.5-9.1c-0.2-1.3-0.3-2.6-0.5-3.9c-0.9-6.9-1.5-14-1.7-21.1h224.1
	l-19.1,34.1l-74.5,133.1l-15.9,28.3C129.45,458.6,126.95,457,124.55,455.3z M256.05,494.9c-3,0-6-0.1-8.9-0.2
	c-4.4-0.2-8.7-0.4-13-0.9c-2.4-0.2-4.8-0.4-7.2-0.8c-1.5-0.2-3-0.3-4.4-0.6c-1.6-0.2-3.3-0.5-4.9-0.8c-3-0.4-6-1-9-1.6
	c-6.1-1.2-12.2-2.7-18.2-4.4c-3-0.9-6-1.8-8.9-2.7c-3-1-6-2-9-3.2c-8.8-3.3-17.4-7.2-25.8-11.4l16-28.4l93.3-166.4l17.7,31.7
	l73.6,131.3l17.8,31.8C332.55,485.3,295.35,494.9,256.05,494.9z M493.15,284.4c-0.2,1.7-0.4,3.3-0.7,5c-0.3,1.9-0.5,3.8-0.9,5.5
	c-0.3,1.7-0.5,3.3-0.9,4.9c-0.4,2.4-0.9,4.8-1.5,7.2c-1.2,5.8-2.7,11.5-4.4,17.2c-0.6,2.4-1.4,4.7-2.2,7.1
	c-1.5,4.8-3.2,9.4-5.1,13.9c-3.2,8.2-7,16.2-11.3,23.9c-0.7,1.4-1.5,2.7-2.2,4.1c-2,3.8-4.4,7.5-6.7,11.1c-1.2,2-2.4,3.8-3.8,5.7
	c-6.9,10.2-14.6,19.8-23,28.8c-2,2.1-4,4.2-6.1,6.2c-0.5,0.5-1,1-1.5,1.6c-2.1,2-4.4,4.1-6.6,6.1c-0.4,0.4-0.9,0.9-1.4,1.3
	c-3,2.6-6.1,5.2-9.2,7.8c-2,1.7-4.1,3.3-6.2,4.9c-1.8,1.4-3.6,2.6-5.4,3.9c-4.6,3.3-9.4,6.5-14.3,9.5l-17.7-32.3l-91.4-163.2h224.1
	C494.45,271.3,493.95,277.9,493.15,284.4z"/>
<g>
</g>
<g>
</g>
<g>
</g>
<g>
</g>
<g>
</g>
<g>
</g>
<g>
</g>
<g>
</g>
<g>
</g>
<g>
</g>
<g>
</g>
<g>
</g>
<g>
</g>
<g>
</g>
<g>
</g>
</svg>
